{"title":"Mystery Men [1999] x264","uid":12115779,"size":885178527,"categoryP":"video","categoryS":"movies","magnet":"?xt=urn:btih:c0756bc222da329e1c5e3d3efeeba0f828490425&amp;dn=Mystery+Men+%5B1999%5D+x264&amp;tr=udp%3A%2F%2Ftracker.openbittorrent.com%3A80&amp;tr=udp%3A%2F%2Fopen.demonii.com%3A1337&amp;tr=udp%3A%2F%2Ftracker.coppersurfer.tk%3A6969&amp;tr=udp%3A%2F%2Fexodus.desync.com%3A6969","seeders":0,"leechers":1,"uploader":null,"files":1,"time":1436698604,"description":"Format                      : MPEG-4\nFormat profile              : Base Media / Version 2\nCodec ID                    : mp42\nFile size                   : 844 MiB\nDuration                    : 2h 1mn\nOverall bit rate mode       : Variable\nOverall bit rate            : 972 Kbps\n\nVideo\nID                          : 1\nFormat                      : AVC\nFormat/Info                 : Advanced Video Codec\nFormat profile              : High@L3\nFormat settings, CABAC      : Yes\nFormat settings, ReFrames   : 4 frames\nCodec ID                    : avc1\nCodec ID/Info               : Advanced Video Coding\nDuration                    : 2h 1mn\nBit rate                    : 800 Kbps\nWidth                       : 720 pixels\nHeight                      : 480 pixels\nDisplay aspect ratio        : 16:9\nOriginal display aspect rat : 16:9\nFrame rate mode             : Variable\nFrame rate                  : 23.976 fps\nMinimum frame rate          : 19.978 fps\nMaximum frame rate          : 55.385 fps\nColor space                 : YUV\nChroma subsampling          : 4:2:0\nBit depth                   : 8 bits\nScan type                   : Progressive\nBits/(Pixel*Frame)          : 0.097\nStream size                 : 695 MiB (82%)\nWriting library             : x264 core 142 r2479 dd79a61\nEncoding settings           : cabac=1 / ref=3 / deblock=1:0:0 / analyse=0x3:0x113 / me=hex / subme=7 / psy=1 / psy_rd=1.00:0.00 / mixed_ref=1 / me_range=16 / chroma_me=1 / trellis=1 / 8x8dct=1 / cqm=0 / deadzone=21,11 / fast_pskip=1 / chroma_qp_offset=-2 / threads=6 / lookahead_threads=1 / sliced_threads=0 / nr=0 / decimate=1 / interlaced=0 / bluray_compat=0 / constrained_intra=0 / bframes=3 / b_pyramid=2 / b_adapt=1 / b_bias=0 / direct=1 / weightb=1 / open_gop=0 / weightp=2 / keyint=240 / keyint_min=24 / scenecut=40 / intra_refresh=0 / rc_lookahead=40 / rc=2pass / mbtree=1 / bitrate=800 / ratetol=1.0 / qcomp=0.60 / qpmin=0 / qpmax=69 / qpstep=4 / cplxblur=20.0 / qblur=0.5 / ip_ratio=1.40 / aq=1:1.00\nColor range                 : Limited\nColor primaries             : BT.601 NTSC\nTransfer characteristics    : BT.709\nMatrix coefficients         : BT.601\n\nAudio\nID                          : 2\nFormat                      : AAC\nFormat/Info                 : Advanced Audio Codec\nFormat profile              : LC\nCodec ID                    : 40\nDuration                    : 2h 1mn\nBit rate mode               : Variable\nBit rate                    : 160 Kbps\nChannel(s)                  : 2 channels\nChannel(s)_Original         : 6 channels\nChannel positions           : Front: L C R, Side: L R, LFE\nSampling rate               : 48.0 KHz\nCompression mode            : Lossy\nStream size                 : 139 MiB (16%)\nTitle                       : Surround / Surround\nLanguage                    : English\n\nText\nID                          : 3\nFormat                      : mp4s\nCodec ID                    : E0\nDuration                    : 1h 58mn\nBit rate mode               : Variable\nBit rate                    : 4 308 bps\nStream size                 : 3.66 MiB (0%)\nLanguage                    : English\n\nMenu\nID                          : 4\nCodec ID                    : text\nDuration                    : 2h 1mn\nLanguage                    : English\n00:00:00.000                : Chapter 1\n00:09:12.502                : Chapter 2\n00:14:58.765                : Chapter 3\n00:22:20.256                : Chapter 4\n00:31:32.724                : Chapter 5\n00:36:40.615                : Chapter 6\n00:47:53.020                : Chapter 7\n00:54:46.767                : Chapter 8\n01:02:43.109                : Chapter 9\n01:12:39.455                : Chapter 10\n01:16:29.235                : Chapter 11\n01:21:45.252                : Chapter 12\n01:34:39.859                : Chapter 13\n01:38:31.257                : Chapter 14\n01:43:30.889                : Chapter 15\n01:47:41.473                : Chapter 16\n01:49:33.201                : Chapter 17\n01:52:04.352                : Chapter 18\nBit rate mode               : VBR","torrent":{"xt":"urn:btih:c0756bc222da329e1c5e3d3efeeba0f828490425","amp;dn":"Mystery+Men+%5B1999%5D+x264","amp;tr":["udp%3A%2F%2Ftracker.openbittorrent.com%3A80","udp%3A%2F%2Fopen.demonii.com%3A1337","udp%3A%2F%2Ftracker.coppersurfer.tk%3A6969","udp%3A%2F%2Fexodus.desync.com%3A6969"],"infoHash":"c0756bc222da329e1c5e3d3efeeba0f828490425","infoHashBuffer":{"type":"Buffer","data":[192,117,107,194,34,218,50,158,28,94,61,62,254,235,160,248,40,73,4,37]},"announce":[],"urlList":[]}}